<?xml version="1.0" encoding="utf-8"?>
<!-- Generator: Adobe Illustrator 21.1.0, SVG Export Plug-In . SVG Version: 6.00 Build 0)  -->
<svg version="1.1" id="Communications" xmlns="http://www.w3.org/2000/svg" xmlns:xlink="http://www.w3.org/1999/xlink" x="0px"
	 y="0px" viewBox="0 0 17.4 15.9" style="enable-background:new 0 0 17.4 15.9;" xml:space="preserve">
<style type="text/css">
	.st0{fill:#5F5F5F;}
</style>
<g>
	<g>
		<path class="st0" d="M2.8,15.7c-0.2,0-0.4-0.1-0.4-0.3c-0.1-0.2-0.1-0.4,0.1-0.5c0,0,1.2-1.5,1.3-3C2,11.1,0.2,9.2,0.2,6.8
			c0-3.7,3.8-6.7,8.5-6.7s8.5,3,8.5,6.7c0,3.7-3.8,6.7-8.5,6.7H7.5C6.2,15.6,3,15.7,2.8,15.7C2.9,15.7,2.9,15.7,2.8,15.7z M8.7,1.2
			c-4.1,0-7.5,2.5-7.5,5.7c0,2.1,1.7,3.7,3.3,4.3c0.2,0.1,0.3,0.3,0.3,0.5c0,1.1-0.5,2.2-0.9,3c1-0.2,2.3-0.7,2.9-1.8
			c0.1-0.2,0.3-0.3,0.4-0.3h1.5c4.1,0,7.5-2.6,7.5-5.7C16.2,3.7,12.8,1.2,8.7,1.2z"/>
	</g>
</g>
</svg>
