<?xml version="1.0" encoding="utf-8"?>
<!-- Generator: Adobe Illustrator 21.1.0, SVG Export Plug-In . SVG Version: 6.00 Build 0)  -->
<svg version="1.1" id="Files__x2F__Folders" xmlns="http://www.w3.org/2000/svg" xmlns:xlink="http://www.w3.org/1999/xlink"
	 x="0px" y="0px" viewBox="0 0 17.3 14.5" style="enable-background:new 0 0 17.3 14.5;" xml:space="preserve">
<style type="text/css">
	.st0{fill:#FF7F45;}
</style>
<g>
	<g>
		<g>
			<path class="st0" d="M15.7,14.3h-14c-0.8,0-1.5-0.7-1.5-1.5V1.7c0-0.8,0.7-1.5,1.5-1.5h4.9c0.3,0,0.5,0.2,0.5,0.5
				S6.8,1.2,6.6,1.2H1.7c-0.3,0-0.5,0.2-0.5,0.5v11.1c0,0.3,0.2,0.5,0.5,0.5h14c0.3,0,0.5-0.2,0.5-0.5V3.2c0-0.3-0.2-0.5-0.5-0.5H14
				c-0.3,0-0.5-0.2-0.5-0.5s0.2-0.5,0.5-0.5h1.7c0.8,0,1.5,0.7,1.5,1.5v9.6C17.2,13.6,16.5,14.3,15.7,14.3z"/>
		</g>
		<g>
			<path class="st0" d="M10.8,2.7H8.7c-0.3,0-0.5-0.2-0.5-0.5s0.2-0.5,0.5-0.5h2.1c0.3,0,0.5,0.2,0.5,0.5S11.1,2.7,10.8,2.7z"/>
		</g>
		<g>
			<path class="st0" d="M8.7,2.7c-0.1,0-0.2,0-0.3-0.1L6.3,1.1C6,1,6,0.7,6.1,0.4c0.2-0.2,0.5-0.3,0.7-0.1L9,1.8
				c0.2,0.2,0.3,0.5,0.1,0.7C9,2.6,8.8,2.7,8.7,2.7z"/>
		</g>
	</g>
	<g>
		<path class="st0" d="M13.8,7c-0.1,0-0.2,0-0.2-0.1l-1.2-0.6L11.1,7c-0.2,0.1-0.3,0.1-0.5,0c-0.1-0.1-0.2-0.3-0.2-0.4V0.7
			c0-0.3,0.2-0.5,0.5-0.5h2.9c0.3,0,0.5,0.2,0.5,0.5v5.8c0,0.2-0.1,0.3-0.2,0.4C14,7,13.9,7,13.8,7z M11.4,1.2v4.5l0.7-0.4
			c0.1-0.1,0.3-0.1,0.4,0l0.7,0.4V1.2H11.4z"/>
	</g>
</g>
</svg>
