<?xml version="1.0" encoding="utf-8"?>
<!-- Generator: Adobe Illustrator 21.0.2, SVG Export Plug-In . SVG Version: 6.00 Build 0)  -->
<svg version="1.1" id="Layer_4_xA0_Image" xmlns="http://www.w3.org/2000/svg" xmlns:xlink="http://www.w3.org/1999/xlink" x="0px"
	 y="0px" viewBox="0 0 651 307" style="enable-background:new 0 0 651 307;" xml:space="preserve">
<style type="text/css">
	.st0{fill:#FFFFFF;}
</style>
<path class="st0" d="M644.1,93.9c-1.1-6.2-3.6-12-7.9-16.6c-6.2-6.5-14-10-23.2-10.3c-6.8-0.2-12.3,2.6-17.2,6.8
	c-1.7,1.5-4.1,3.6-3.8,5.8c1.1,1.5,2.8-0.1,4.6-1.5c2.2-1.7,4.4-3.6,6.8-4.8c5.3-2.5,10.6-1.1,15.2,1.5c3.1,1.8,5.4,4.9,7,8.4
	c1.8,4.1,2.6,8.4,3.3,12.8c1.1,6,0.1,11.8-1.6,17.5c-2.5,8.3-7.2,15.5-11.9,22.6c-4.4,6.7-10.4,12-16.6,17
	c-6,4.8-12.5,8.8-20.1,10.7c-5.4,1.4-10.8,1.6-16.1-0.3c-2.9-1-5.1-2.6-6.5-5.6c-1.7-3.6-2.7-7.2-2.5-11.1c0.1-2.5,0.5-4.5,1-7.3
	c0.6-3.2,1.9-4.6,4.9-5.5c9.6-2.8,17.6-8.3,24.2-15.7c3.5-3.9,6-8.4,6.2-13.9c0.3-6-1.6-8.7-7.5-10.2c-5.8-1.5-11.6-1.3-17.5,0
	c-4.5,0.9-8.3,3-11.6,6.1c-2.3,2.2-4.6,4.7-6.3,7.4c-5.7,9.3-9.4,19.4-10.8,30.2c-0.2,1.9-0.8,3.3-2.1,4.7c-2.2,2.4-4.4,4.8-6.3,7.4
	c-4.3,5.7-6.4,9-14.6,15.8c-0.9,0.9-6.4,1.7-6-3.1c1-7.9,2.8-20.8,26.4-65.8c4.5-7.6,8.5-15.5,12.6-23.4c1.9-3.6,2.8-7.4,2.8-11.5
	c-0.1-7.3-7.4-15.5-14.5-16.3c-0.3,0-0.6-0.1-0.9,0c-1.8,0.2-3.8,1.6-2.9,4c1.3,3.7,0.6,7.2-0.3,10.9c-1.8,7.2-4.9,13.9-7.9,20.6
	c-5.6,12.7-11.3,25.3-16.9,38c-4.2,9.6-7.4,19.6-9.7,29.8c-1.4,6.1-1.2,12,2,17.6c3.5,6.2,9.9,8.2,16.2,5c4-2,7.3-5,10.1-8.4
	c3.2-3.9,6.3-7.8,9.4-11.7c0.8-1,1.7-1.9,2.8-3.1c0.6,1.8,1,3,1.5,4.2c1.8,4.6,4.2,8.9,8.3,11.8c3.2,2.3,6.7,4.2,10.5,5.5
	c5.8,2.1,11.8,2.2,17.9,2.3c10.5,0.2,20-3.1,28.9-8.3c7.3-4.3,13.6-9.7,19.5-15.8c8.5-8.5,14.8-18.2,18.8-29.5
	C645,110.7,645.6,102.4,644.1,93.9z M582.7,102.5c2.3,2.5,1,5.1-0.2,7.9c-0.7,1.6-1.5,3.2-2.6,4.6c-5.6,7.2-12.7,12.4-21.8,15.9
	C559.9,121.3,576.5,100.3,582.7,102.5z M638.8,104.8c1.9-13.3-2.5-18.7-8.5-26.8C639.9,85.1,642.3,96.6,638.8,104.8z"/>
<path class="st0" d="M484.3,102.1c-5.2-1.5-10.3-1.2-15.5-0.2c-1.9,0.3-3.7,1.2-5.3,2.1c-3.9,2.3-7.4,5.1-10.4,8.4
	c-0.4,0.4-0.9,0.8-1.4,1.1c4.6-9.5,8.5-17.8,12.6-25.1c4.3-8.6,7.3-14.1,11.3-22.1c-0.7-0.3-14.8,1.5-14.8,1.5s-18.9,38.8-25.8,55
	c-4.7,11.1-9.3,22.3-14,33.4c-0.5,1.1-1,2.2-1.7,3.1c-3.6,4.4-5.9,7.1-10.4,12c-1.3,1.6-2.9,3.6-6,6.4c0.4-2.5,1.1-5.4,1.6-7.1
	c1.6-5,3.2-10,5.2-14.8c2.7-6.6,5.8-13.1,8.8-19.6c1.3-2.7,2.1-5.6,2.3-8.6c0.2-3.3-2-6.1-5.6-7.2c-3.1-1-3.7-1.3-6.2,2.3
	c-1,1.4-1,1.9-2.5,4c-1.7-1.9-5-3.5-7.5-3.9c-4.9-0.7-9.2-0.3-13.9,1.4c-8.3,3-14.7,8.7-19.5,15.8c-5.5,8.1-8.9,17.2-10,27
	c-0.5,4.4-2,8-4.6,11.4c-3.2,4.3-6.3,8.7-9.6,12.9c-0.8,1.1-4.1,2.1-2-5.5c3-11.7,5.8-21.5,9.1-32.5c0.7-1.8,3.6-15.4-4.1-16.3
	c-0.9-0.1-1.8,0-2.7,0c-5.9,0-9.1,6.7-10.4,9c-7,11.5-13.9,23-20.7,34.5c-6.5,11.6-5.3,5.5-5,4c3.1-14.5,7.8-28.5,14.3-41.8
	c8.1-16.5,17.8-31.8,32.8-43c0.3-0.2-1.3-4.8-6.2-5c-2.5-0.1-5.1,0-7.6,0.4c-5.9,1.1-10.2,4.7-14,9.1c-6.4,7.6-11.4,16.1-15.4,25.1
	c-3.1,7-5.6,14.2-8.1,21.3c-2.9,8.1-6.1,16.2-8.4,24.6c-1.4,5.2-13.7,25.5-27.8,35.7c-1,0.8-2.2,1.6-3.3,2.2c-2.2,1-3.6,0.6-5.1-1.3
	c-1.4-1.8-1.9-4-2-6.3c-0.3-5.9,0.1-11.7,1.4-17.4c1.6-7.2,3.6-14.2,8.4-20c2.2-3.1,5.7-6.7,8.1-9.1c4.9-5.4,3.9-1.1,3.6-0.1
	c-0.8,2.7-0.9,5-1.3,7.8c-0.3,2.6-0.4,5.3,0.4,8c0.4,1.4,1.1,2.2,2.1,3c1,0.7,1.9,0.9,3,1.1c-0.6-7,0.7-13.1,4.1-18.8
	c1.9-3.2,4-6.3,5.9-9.5c2.2-3.7,1.4-6.6-2.4-8.5c-1.3-0.6-3.3-1.3-4.7-1.3c-2.5,0.1-4.7,0.5-7,1.4c-3.4,1.4-6.7,3.3-9.9,5.1
	c-9.7,5.2-16.3,13.3-21.2,23c-3.4,6.8-4.9,14.1-6.3,21.4c-0.4,2.1-1.1,4-2.4,5.7c-4.6,6.4-9.2,12.9-13.8,19.3
	c-1.4,1.9-6.8,7.5-5.8-2.8c1.2-8,3.8-15.7,7.1-23c2.8-6.3,6.1-12.3,9.1-18.4c1.1-2.1,2.2-4.3,2.9-6.5c0.6-1.8,0.9-3.8,1-5.7
	c0.1-2.6-1.3-4.5-3.7-5.6c-4.6-2.2-8.3-1.1-11,3.3c-1.1,1.9-1.9,4-3.6,5.4c-2.3-0.5-4.3-1.1-6.4-1.3c-8-0.7-14.7,0.1-21.7,3.6
	c-2.6,1.3-5.8,4.3-7.9,6.4c-6,6-10.6,12.9-13.9,20.7c-2.2,5.2-3.9,10.6-6,15.9c-0.8,2.1-3.3,7.8-6.9,13.9
	c-4.4,7.9-11.7,15.5-18,21.9c-2.5,2.5-5.5,4.1-8.7,5.3c-2.2,0.9-3.7,0.4-5.1-1.5c-0.6-0.9-0.9-2.1-1.2-3.3
	c-1.5-6.3-0.4-11.6,0.8-17.8c0.5-2.6,2.2-5.3,4.5-6.8c7.2-5.1,13.9-10.8,19.8-17.4c2.9-3.3,5.3-6.9,6.9-10.9c0.8-2,1.3-4,0.9-6.1
	c-1.1-6-5.7-10.6-11.8-11.3c-8-1-17.1,1.5-22.9,7.2c-5.6,5.5-21.3,31.7-16,59c2.1,13.4,12.2,16.1,20.7,16.4
	c8.3-0.5,12.1-3.1,16.6-7.4c5.5-5.3,10.6-10.9,14.4-17.6c2.1-3.4,3.8-0.3,4.5,1.2c1.9,4.3,5.2,7.2,9.5,9c5.6,2.4,10.3,0.7,13.2-3.1
	c0.7-0.9,1.5-1.8,2.2-2.8c4.2-6,13.6-18.7,14.3-19.3c0.1,1.9-0.1,3.5,0.1,5.1c0.2,2.9,1.5,5.4,3.2,7.7c3.3,4.4,8.9,4.9,12.9,1.2
	c1.1-1,2-2.2,2.9-3.4c5.5-7.3,17.6-22.9,18.6-23.8c0.8,6.8,4.3,11.4,9,15.1c7.2,5.8,12.6,6.8,21.5,0.3c0.5-0.3,0.9-0.8,1.3-1.2
	c4.7-3.8,8.3-8.5,12-13.3c2.2-2.8,4.3-5.6,6.9-9c0.2,1.3-1.4,13.2,4.8,14.8c3.1,1.1,5.5-0.2,7.6-2.4c2.7-2.7,4.3-6,5.9-9.4
	c2.9-6.2,5.6-12.5,8.7-18.7c4.7-9.4,9.8-18.5,15.8-27.1c0.4-0.6,2.9-3.3-1.3,8.8c-3.5,10.3-5.1,20-5.7,30.8
	c-0.1,1.8-0.2,4.7,0.2,6.7c0.5,2.6,3,4.4,4.1,5c4.9,1.9,7.4,1.2,10.7-3.2c4.2-5.6,8.6-11.1,12.9-16.6c0.5-0.7,1.1-1.3,2-2.3
	c0.5,1.4,0.7,2.4,1.1,3.3c1.3,3.9,4.2,6,8,7.1c1.5,0.4,2.8,0.2,4.3-0.5c2.8-1.5,5.3-3.4,7.4-5.7c4.2-4.6,8.3-9.4,12.5-14
	c0.5-0.6,1.2-1.1,2.3-2.1c-0.2,1.9-0.3,3-0.4,4.2c-0.3,3.2,0.3,6.2,2.1,9c2,3.2,4.6,4.1,8,2.5c5.2-2.6,16-16,16.6-16.8
	c-1.1,3.5-1.4,4.6-2.4,7.3c-0.6,1.5-0.5,4.2,0.4,5.6c2,3.1,6.1,3.7,9,1.4c2.1-1.7,3.7-3.9,4.8-6.4c0.9-1.9,1.8-3.7,2.5-5.3
	c2.8,1.4,5.4,3.1,8.1,3.9c7.6,2.4,14.8,0.7,21.5-3.1c5.1-2.9,9.6-6.6,13.2-11.3c2.7-3.5,5.3-7.2,8.1-10.7c3.5-4.2,6.4-8.6,8.8-13.5
	c3-6.2,5-12.8,5.3-19.7C496.2,110.8,491.9,104.3,484.3,102.1z M129.5,208.5c2.2-7.8,5.6-15,10.8-21.3c1.2-1.5,2.6-2.9,4.2-4
	c3.2-2.3,5.3-1.2,5.8,2.7c0.3,2.7-0.2,5.4-1.4,7.8c-1,2.1-2.3,4.2-3.7,6.1c-3.4,4.6-7.8,8.1-12.3,11.6c-1,0.8-2.8,1.6-4.8,2.7
	C128.4,211.7,129.1,209.9,129.5,208.5z M215.2,170.8c-0.4,1-0.9,1.9-1.3,2.8c-3.4,8.3-7.1,16.5-9.3,25.2c-0.4,1.4-1.1,2.8-1.9,4
	c-5.4,7.5-10.8,15-16.2,22.5c-3.4,4.8-10.4,10.3-7.3-2.2c2.4-9.6,5.2-18.5,8.6-27.7c1.5-4.7,3.2-9.3,5.3-13.8
	c1.5-3.4,3.6-6.5,5.6-9.7c1.8-2.8,4.6-4.2,7.7-5c2.8-0.8,5.3,0.2,7.8,1.2C215.3,168.7,215.6,169.7,215.2,170.8z M401.7,136.7
	c-2.1,4.6-4.1,9.2-6.2,13.9c-0.4,0.8-0.8,1.6-1.3,2.4c-6.6,11.9-14.7,21.6-24.4,30.6c-0.7,0.7-4.9,1.3-3.4-5.5
	c1.8-10.3,5.7-19.7,11-28.6c3.5-5.8,7.3-11.2,12.7-15.4c1.1-0.8,2.2-1.6,3.3-2.3c1.9-1.2,4-1.1,6-0.5
	C402.3,132.2,402.9,133.9,401.7,136.7z M477.8,120.7c-2.7,14.4-9,27.2-18.4,38.2c-4.5,5.3-7.8,9.6-15.7,12.3
	c-1.9,0.6-6.3-0.5-7.9-2.1c-3-4.7-0.7-7.5,0.6-11.2c4.9-9.8,7.2-13.8,11.6-20.5c4.1-6.4,8.8-12.4,13.3-18.5c2.7-3.7,6-6.6,10-8.8
	C477.3,108,478.5,116.7,477.8,120.7z"/>
<path class="st0" d="M174.4,92.4c-2.4-3.3-4.6-4.8-9.6-6c-6.9-1.6-3,3.9-4,7.2c-1.1,4.2-3,6.1-6.4,9.3c-3.2,3-6.8,5.3-10.9,6.9
	c-11.4,4.3-23.4,6.1-35.5,6.2c-6.3,0-16.9,0-26.2,0.1c-15.1,0.8-25.1,1.7-40.3,7.5c-9,3.4-16.8,9.4-23.2,16.8
	c-7.8,8.9-12.1,19.1-12,31c0,10.1,5.7,17.1,13.8,22c6.2,3.8,13.3,3.4,20,1.8c13.1-3,24.9-9.1,35.3-17.7c1.6-1.3,3.2-2.7,5.5-4.7
	c-1.9,6.9-3.6,12.6-5,18.3c-2.6,10.6-4.8,21.2-6.4,32c-2,13.8-2.9,27.6-2.1,41.5c0.5,9.2,3.2,17.9,8.2,25.8
	c3.5,5.6,8.7,8.9,14.9,10.7c2.6,0.8,5.3,0.9,8,0.3c1.6-0.4,4.1-1.1,5.3-2.1c5.6-4.1,2.7-3.4-0.3-6.6c-1-1.3-5.2-5.7-7.8-12.5
	c-2.6-6.9-4.7-13.9-4.8-21.3c-0.2-7.9-0.3-15.8,0.2-23.7c1.1-16.4,3.4-32.6,6.8-48.7c3.6-17,9.2-33.3,16.2-49.2
	c1.1-2.6,2.6-3.5,5.4-3.4c8.6,0.2,17.3,0.3,25.9-0.9c8.2-1.1,16.1-3,23.1-7.6c3-1.9,5.6-3.7,7.2-7c1.9-3.8,2.7-6.7,3.2-10.1
	C180.1,102.4,178,97.4,174.4,92.4z M72.8,240.3c-0.1,32.2,1.6,37.2,12.8,53.8C69.8,278.4,70.3,259.6,72.8,240.3z M86.9,155.8
	c-10.4,15.4-24.2,26.5-42.1,32.3c-5,1.7-10.2,2.1-15.4,1.6c-3.8-0.3-7.2-1.7-10.4-3.8c-4.5-2.9-6.3-7.1-5.2-12.3
	c0.7-3.2,1.6-6.2,3-9.2c1.1-2.4,3-4.6,4.4-6.9c4.1-5.2,8-7.9,12.9-10.8c11.2-6.5,23.6-9.6,36.3-11.8c8.4-1.5,25.8-1.2,26.2-0.9
	C94.1,141.5,91.5,148.9,86.9,155.8z M147.1,126.8c15.3-4.2,19.6-9.2,26.2-18.5C170.6,119.1,157.6,127.8,147.1,126.8z"/>
<path class="st0" d="M528.2,8c-4.3-4.1-13.6-4.1-20.5-1.5c-5.9,2.2-10.6,6-15,10.3c-8.4,8-14.7,17.6-20.5,27.5c-0.8,1.3-2,3.1-2,3.1
	s-2.4,0.2-3.6,0.2c-13.7,0.2-26.9,2.8-39.5,8.6c-6.3,2.9-11.3,7-15.8,12.1c-7.5,8.5-7.4,26.3,5.1,33.2c1.7,0.9,3.4,1.8,5.2,2.6
	c0.7,0.3,1.4,0.5,2.1,0.6c1.9,0.2,3.2-1.4,2.5-3.1c-0.9-2.1-1.2-4.3-1.1-6.5c0.2-4.2,1.7-7.8,3.9-11.2c5.1-7.8,12.4-12.8,20.6-16.6
	c6.2-2.9,12.8-3.9,19.5-4.6c8.3-0.9,16.6-1.8,24.7-4c13.7-3.7,24.5-11.3,32.7-22.8c3.3-4.7,5.7-9.8,5.7-17.6
	C532.1,15.6,531.5,12.2,528.2,8z M412.3,88c-2.5-8,2.1-18.3,8.9-21.3C413.5,74.8,412.8,79.6,412.3,88z M524.2,22.4
	c-1.6,5.9-4.7,11-9.5,14.8c-3.2,2.5-5.2,4.3-9.5,6.3c-4.9,2.4-17.4,4.2-18.1,3.8c6.7-11.5,15.6-22.7,25.8-31c2-1.6,3.9-2.9,6.4-3.9
	c2-0.8,3.7,0.2,4.5,2.1C525,17.1,524.9,19.8,524.2,22.4z"/>
</svg>
