<?xml version="1.0" encoding="UTF-8"?>
<svg width="25px" height="24px" viewBox="0 0 25 24" version="1.1" xmlns="http://www.w3.org/2000/svg" xmlns:xlink="http://www.w3.org/1999/xlink">
    <!-- Generator: Sketch 46.2 (44496) - http://www.bohemiancoding.com/sketch -->
    <title>social-twitter</title>
    <desc>Created with Sketch.</desc>
    <defs></defs>
    <g id="Page-1" stroke="none" stroke-width="1" fill="none" fill-rule="evenodd">
        <g id="job-desc-template" transform="translate(-1355.000000, -227.000000)" fill-rule="nonzero" fill="#BEBEBE">
            <g id="social-twitter" transform="translate(1355.666667, 227.000000)">
                <g id="twitter-4_7_">
                    <path d="M12,23.988557 C8.79787342,23.988557 5.78734177,22.741519 3.52293671,20.4771646 C1.25848101,18.2128101 0.011443038,15.2022278 0.011443038,12 C0.011443038,8.79777215 1.25853165,5.78718987 3.52298734,3.52278481 C5.78734177,1.25843038 8.79787342,0.011443038 12,0.011443038 C15.2021266,0.011443038 18.2126582,1.25848101 20.4770633,3.52283544 C22.741519,5.78724051 23.9886076,8.79782278 23.9886076,12.0000506 C23.9886076,15.2022785 22.741519,18.2128608 20.4770633,20.4772658 C18.2126582,22.7415696 15.2021266,23.988557 12,23.988557 Z M12,1.37853165 C6.14329114,1.37853165 1.37853165,6.14329114 1.37853165,12 C1.37853165,17.8567089 6.14329114,22.6214684 12,22.6214684 C17.8567089,22.6214684 22.6214684,17.8567089 22.6214684,12 C22.6214684,6.14329114 17.8567089,1.37853165 12,1.37853165 Z" id="Shape"></path>
                </g>
                <path d="M16.4911899,9.87326582 C16.6385316,13.1330127 14.2077468,16.7673418 9.90405063,16.7673418 C8.59534177,16.7673418 7.37797468,16.3835949 6.35210127,15.7260253 C7.58202532,15.871038 8.80886076,15.5294684 9.78278481,14.7663797 C8.76946835,14.747443 7.91301266,14.0777215 7.61751899,13.1570633 C7.98146835,13.2263797 8.33924051,13.2058734 8.66465823,13.1172152 C7.55058228,12.8930633 6.78075949,11.8892658 6.80592405,10.8156962 C7.11873418,10.9894177 7.4756962,11.0934177 7.85544304,11.1056709 C6.82324051,10.4157975 6.53174684,9.05306329 7.13837975,8.01144304 C8.28086076,9.41356962 9.98911392,10.3363038 11.9148354,10.4327595 C11.5768608,8.98334177 12.6768101,7.58708861 14.1731139,7.58708861 C14.8389367,7.58708861 15.4416203,7.8684557 15.864,8.31913924 C16.3918987,8.21544304 16.8883038,8.02248101 17.3358481,7.75691139 C17.162481,8.29822785 16.7953418,8.75205063 16.3170633,9.03888608 C16.7858228,8.98248101 17.2326582,8.85837975 17.6478987,8.67362025 C17.3374177,9.13858228 16.9450633,9.54668354 16.4911899,9.87326582 Z" id="Shape"></path>
            </g>
        </g>
    </g>
</svg>