<?xml version="1.0" encoding="utf-8"?>
<!-- Generator: Adobe Illustrator 21.0.2, SVG Export Plug-In . SVG Version: 6.00 Build 0)  -->
<svg version="1.1" id="Layer_1" xmlns="http://www.w3.org/2000/svg" xmlns:xlink="http://www.w3.org/1999/xlink" x="0px" y="0px"
	 viewBox="0 0 24 24" style="enable-background:new 0 0 24 24;" xml:space="preserve">
<style type="text/css">
	.st0{fill:#BEBEBE;}
</style>
<title>social-linkedin</title>
<desc>Created with Sketch.</desc>
<g id="Page-1">
	<g id="job-desc-template" transform="translate(-1389.000000, -227.000000)">
		<g id="social-linkedin" transform="translate(1389.000000, 227.000000)">
			<g id="Group" transform="translate(7.189873, 7.189873)">
				<rect id="Rectangle-path" x="0.1" y="3.3" class="st0" width="2.1" height="6.3"/>
				<path id="Shape" class="st0" d="M1.2,2.4C0.6,2.4,0,1.8,0,1.2C0,0.6,0.6,0,1.2,0s1.2,0.5,1.2,1.2C2.3,1.8,1.8,2.4,1.2,2.4z"/>
				<path id="Shape_1_" class="st0" d="M9.6,9.6H7.5v-3c0-2-2.1-1.8-2.1,0v3H3.3V3.3h2.1v1.1c0.9-1.7,4.2-1.8,4.2,1.6V9.6z"/>
			</g>
			<g id="twitter-4_11_">
				<path id="Shape_2_" class="st0" d="M12,24c-3.2,0-6.2-1.2-8.5-3.5C1.3,18.2,0,15.2,0,12s1.2-6.2,3.5-8.5C5.8,1.3,8.8,0,12,0
					s6.2,1.2,8.5,3.5C22.7,5.8,24,8.8,24,12s-1.2,6.2-3.5,8.5C18.2,22.7,15.2,24,12,24z M12,1.4C6.1,1.4,1.4,6.1,1.4,12
					S6.1,22.6,12,22.6S22.6,17.9,22.6,12S17.9,1.4,12,1.4z"/>
			</g>
		</g>
	</g>
</g>
</svg>
