<?xml version="1.0" encoding="utf-8"?>
<!-- Generator: Adobe Illustrator 21.0.2, SVG Export Plug-In . SVG Version: 6.00 Build 0)  -->
<svg version="1.1" id="Layer_1" xmlns="http://www.w3.org/2000/svg" xmlns:xlink="http://www.w3.org/1999/xlink" x="0px" y="0px"
	 viewBox="0 0 24 24" style="enable-background:new 0 0 24 24;" xml:space="preserve">
<style type="text/css">
	.st0{fill:#BEBEBE;}
</style>
<title>social-email</title>
<desc>Created with Sketch.</desc>
<g id="Page-1">
	<g id="job-desc-template" transform="translate(-1289.000000, -227.000000)">
		<g id="social-email" transform="translate(1289.000000, 227.000000)">
			<g id="twitter-4">
				<path id="Shape" class="st0" d="M12,24c-4.8,0-9.2-2.9-11.1-7.4S0.1,7,3.5,3.6c3-3,7.4-4.2,11.6-3.1s7.4,4.3,8.5,8.5
					s-0.1,8.6-3.1,11.6C18.2,22.7,15.1,24,12,24z M12,1.4C6.1,1.4,1.4,6.2,1.4,12S6.1,22.6,12,22.6S22.6,17.9,22.6,12
					S17.8,1.4,12,1.4L12,1.4z"/>
			</g>
			<path id="Shape_1_" class="st0" d="M12,11.1l5.1-2.5c-0.1-0.1-0.2-0.2-0.4-0.2H7.3C7.1,8.5,7,8.6,6.9,8.7L12,11.1z"/>
			<path id="Shape_2_" class="st0" d="M12,12.1L12,12.1L12,12.1L6.7,9.6V15c0,0.3,0.3,0.6,0.6,0.6h9.4c0.3,0,0.6-0.3,0.6-0.6V9.6
				L12,12.1z"/>
		</g>
	</g>
</g>
</svg>
