<?xml version="1.0" encoding="UTF-8"?>
<svg width="25px" height="24px" viewBox="0 0 25 24" version="1.1" xmlns="http://www.w3.org/2000/svg" xmlns:xlink="http://www.w3.org/1999/xlink">
    <!-- Generator: Sketch 46.2 (44496) - http://www.bohemiancoding.com/sketch -->
    <title>social-facebook</title>
    <desc>Created with Sketch.</desc>
    <defs></defs>
    <g id="Page-1" stroke="none" stroke-width="1" fill="none" fill-rule="evenodd">
        <g id="job-desc-template" transform="translate(-1322.000000, -227.000000)" fill-rule="nonzero" fill="#BEBEBE">
            <g id="social-facebook" transform="translate(1322.333333, 227.000000)">
                <g id="twitter-4_9_">
                    <path d="M12,23.988557 C8.79787342,23.988557 5.78734177,22.741519 3.52293671,20.4771646 C1.25848101,18.2128101 0.011443038,15.2022278 0.011443038,12 C0.011443038,8.79777215 1.25853165,5.78718987 3.52298734,3.52278481 C5.78734177,1.25843038 8.79787342,0.011443038 12,0.011443038 C15.2021266,0.011443038 18.2126582,1.25848101 20.4770633,3.52283544 C22.741519,5.78724051 23.9886076,8.79782278 23.9886076,12.0000506 C23.9886076,15.2022785 22.741519,18.2128608 20.4770633,20.4772658 C18.2126582,22.7415696 15.2021266,23.988557 12,23.988557 Z M12,1.37853165 C6.14329114,1.37853165 1.37853165,6.14329114 1.37853165,12 C1.37853165,17.8567089 6.14329114,22.6214684 12,22.6214684 C17.8567089,22.6214684 22.6214684,17.8567089 22.6214684,12 C22.6214684,6.14329114 17.8567089,1.37853165 12,1.37853165 Z" id="Shape"></path>
                </g>
                <path d="M15.1057215,8.33483544 L13.8691139,8.33483544 C13.3760506,8.33483544 13.2731646,8.53706329 13.2731646,9.0475443 L13.2731646,10.167443 L15.1057215,10.167443 L14.9142278,12 L13.2731646,12 L13.2731646,18.4139747 L10.5243038,18.4139747 L10.5243038,12 L8.69174684,12 L8.69174684,10.167443 L10.5243038,10.167443 L10.5243038,8.05301266 C10.5243038,6.432 11.3770633,5.58602532 13.3,5.58602532 L15.1057215,5.58602532 L15.1057215,8.33483544 L15.1057215,8.33483544 Z" id="Shape"></path>
            </g>
        </g>
    </g>
</svg>